<svg xmlns="http://www.w3.org/2000/svg" xmlns:xlink="http://www.w3.org/1999/xlink" viewBox="0 0 800 313"><defs><style>.a,.ab,.v,.w{fill:none;}.b{isolation:isolate;}.c{fill:url(#a);}.d{clip-path:url(#b);}.e{fill:#8d6e63;}.f{fill:#6d4c41;}.g{fill:#ffa726;}.aa,.h,.m,.n,.p,.r{fill:#fff;}.i{fill:#e53935;}.j{fill:#26a69a;}.k{fill:#90a4ae;}.l{fill:#f9a825;}.m{opacity:0.56;}.m,.n,.p,.r{mix-blend-mode:overlay;}.n{opacity:0.39;}.o{fill:#91b426;}.p{opacity:0.19;}.q{fill:#7cb342;}.r{opacity:0.24;}.s{fill:#fafafa;}.t{fill:#046d8b;}.u{fill:#e0e0e0;}.v{stroke:#546e7a;stroke-width:33px;}.aa,.ac,.v,.z{stroke-miterlimit:10;}.ab,.ac,.w,.z{stroke:#fff;}.ab,.w{stroke-linecap:round;stroke-linejoin:round;}.w{stroke-width:5px;stroke-dasharray:16 22;}.x{fill:#ffa900;}.ac,.y,.z{fill:#333;}.aa,.z{stroke-width:1.77px;}.aa{stroke:#333;}.ab,.ac{stroke-width:2px;}</style><linearGradient id="a" x1="400" y1="-495.07" x2="400" y2="-183.09" gradientTransform="translate(0 496.2)" gradientUnits="userSpaceOnUse"><stop offset="0" stop-color="#e0f2f1"/><stop offset="0.19" stop-color="#dbf0ef"/><stop offset="0.4" stop-color="#cdeae8"/><stop offset="0.63" stop-color="#b6e1de"/><stop offset="0.86" stop-color="#97d4cf"/><stop offset="1" stop-color="#80cbc4"/></linearGradient><clipPath id="b"><rect class="a" y="-491" width="800" height="800"/></clipPath></defs><title>bagroundfreight</title><g class="b"><rect class="c" y="1.1" width="800" height="311.98" transform="translate(800 314.2) rotate(180)"/><g class="d"><rect class="e" x="88.3" y="132.2" width="145.1" height="84.69"/><polygon class="f" points="232.9 134.4 88.8 134.4 80.9 123 240.9 123 232.9 134.4"/><rect class="e" x="74.8" y="102.6" width="172.2" height="22.55"/><rect class="g" x="141.8" y="183.7" width="38.1" height="30.21"/><rect class="h" x="137.2" y="177.4" width="47.3" height="9.39"/><rect class="i" x="137.2" y="177.4" width="5.3" height="9.39"/><rect class="i" x="147.8" y="177.4" width="5.3" height="9.39"/><rect class="i" x="158.3" y="177.4" width="5.3" height="9.39"/><rect class="i" x="168.8" y="177.4" width="5.3" height="9.39"/><rect class="i" x="179.3" y="177.4" width="5.3" height="9.39"/><path class="f" d="M124.4,119.7h-2.6l-1.4-5.6-0.3-1.2q-0.2-.9-0.2-1.3l-0.2,1.3-0.3,1.2-1.4,5.6h-2.6l-2.7-10.6H115l1.4,5.8q0.4,1.6.5,2.8l0.2-1.3q0.2-.9.3-1.3l1.5-5.9H121l1.5,5.9,0.3,1.2,0.2,1.4,0.2-1.4,0.3-1.4,1.4-5.8h2.2Z"/><path class="f" d="M135,119.7l-0.8-2.5h-3.9l-0.8,2.5h-2.4l3.7-10.7h2.8l3.8,10.7H135Zm-1.3-4.4-1.2-3.9-0.2-.7-1.4,4.6h2.8Z"/><path class="f" d="M141,115.7v4.1h-2.3V109.1h3.1a5.3,5.3,0,0,1,3.2.8,3.1,3.1,0,0,1,.5,4.1,3.4,3.4,0,0,1-1.5,1.1l3.1,4.6h-2.5l-2.5-4.1H141Zm0-1.8h0.7a2.8,2.8,0,0,0,1.6-.4,1.3,1.3,0,0,0,.5-1.1,1.2,1.2,0,0,0-.5-1.1,3.2,3.2,0,0,0-1.6-.3H141v2.9Z"/><path class="f" d="M154.7,119.7h-6.1V109.1h6.1V111h-3.9v2.3h3.6v1.8h-3.6v2.7h3.9v1.9Z"/><path class="f" d="M165.6,119.7h-2.2v-4.6h-4.2v4.6h-2.3V109.1h2.3v4.2h4.2v-4.2h2.2v10.6Z"/><path class="f" d="M177.9,114.4a5.8,5.8,0,0,1-1.3,4.1,5.7,5.7,0,0,1-7.5,0,5.8,5.8,0,0,1-1.3-4.1,5.7,5.7,0,0,1,1.3-4,4.9,4.9,0,0,1,3.8-1.4,4.8,4.8,0,0,1,3.7,1.4A5.8,5.8,0,0,1,177.9,114.4Zm-7.7,0a4.4,4.4,0,0,0,.7,2.7,2.4,2.4,0,0,0,2,.9q2.7,0,2.7-3.6t-2.7-3.6a2.4,2.4,0,0,0-2,.9A4.4,4.4,0,0,0,170.1,114.4Z"/><path class="f" d="M188.7,109.1V116a4,4,0,0,1-.5,2.1,3.4,3.4,0,0,1-1.5,1.4,5.4,5.4,0,0,1-2.4.5,4.5,4.5,0,0,1-3.2-1A3.7,3.7,0,0,1,180,116v-6.8h2.2v6.5a2.7,2.7,0,0,0,.5,1.8,2.1,2.1,0,0,0,1.6.6,2,2,0,0,0,1.6-.6,2.7,2.7,0,0,0,.5-1.8v-6.5h2.2Z"/><path class="f" d="M197.6,116.8a2.7,2.7,0,0,1-1,2.3,4.5,4.5,0,0,1-2.9.8,6.8,6.8,0,0,1-3-.6v-2.1l1.8,0.7,1.4,0.2a1.9,1.9,0,0,0,1.1-.3,1,1,0,0,0,.4-0.8,0.9,0.9,0,0,0-.2-0.6l-0.5-.5-1.4-.7-1.5-.9a3.3,3.3,0,0,1-.8-1,2.8,2.8,0,0,1-.3-1.3,2.7,2.7,0,0,1,1-2.2,4,4,0,0,1,2.6-.8l1.6,0.2,1.6,0.6-0.7,1.8-1.4-.5h-1.1a1.4,1.4,0,0,0-1,.3,1,1,0,0,0-.3.8,1,1,0,0,0,.1.5l0.4,0.4,1.4,0.7a5.7,5.7,0,0,1,2,1.4A2.8,2.8,0,0,1,197.6,116.8Z"/><path class="f" d="M205.6,119.7h-6.1V109.1h6.1V111h-3.9v2.3h3.6v1.8h-3.6v2.7h3.9v1.9Z"/><rect class="h" x="97.9" y="141" width="56.9" height="5.73"/><rect class="h" x="97.9" y="151.7" width="56.9" height="5.73"/><rect class="h" x="97.9" y="162.4" width="56.9" height="5.73"/><rect class="h" x="167.1" y="141" width="56.9" height="5.73"/><rect class="h" x="167.1" y="151.7" width="56.9" height="5.73"/><rect class="h" x="167.1" y="162.4" width="56.9" height="5.73"/><rect class="h" x="97.9" y="172.8" width="8.9" height="26.01"/><rect class="h" x="112" y="172.8" width="8.9" height="26.01"/><rect class="h" x="201" y="172.8" width="8.9" height="26.01"/><rect class="h" x="215.1" y="172.8" width="8.9" height="26.01"/><rect class="j" x="634.9" y="25.9" width="74.4" height="28.26"/><polyline class="k" points="695.3 50.8 710.5 50.8 710.5 215.3 695.3 215.3 649 215.3 633.8 215.3 633.8 50.8 649 50.8"/><rect class="h" x="694.4" y="92.3" width="2.9" height="26.58" transform="translate(1391.7 211.1) rotate(180)"/><rect class="h" x="688" y="92.3" width="2.9" height="26.58" transform="translate(1378.8 211.1) rotate(180)"/><rect class="h" x="681.5" y="92.3" width="2.9" height="26.58" transform="translate(1366 211.1) rotate(180)"/><rect class="h" x="675.1" y="92.3" width="2.9" height="26.58" transform="translate(1353.1 211.1) rotate(180)"/><rect class="h" x="668.6" y="92.3" width="2.9" height="26.58" transform="translate(1340.2 211.1) rotate(180)"/><rect class="h" x="662.2" y="92.3" width="2.9" height="26.58" transform="translate(1327.3 211.1) rotate(180)"/><rect class="h" x="655.7" y="92.3" width="2.9" height="26.58" transform="translate(1314.4 211.1) rotate(180)"/><rect class="h" x="649.3" y="92.3" width="2.9" height="26.58" transform="translate(1301.5 211.1) rotate(180)"/><rect class="h" x="642.9" y="92.3" width="2.9" height="26.58" transform="translate(1288.7 211.1) rotate(180)"/><rect class="h" x="646.4" y="146.5" width="51.5" height="6.53" transform="translate(1344.3 299.6) rotate(180)"/><rect class="h" x="646.4" y="158.7" width="51.5" height="6.53" transform="translate(1344.3 324) rotate(180)"/><rect class="h" x="646.4" y="170.9" width="51.5" height="6.53" transform="translate(1344.3 348.3) rotate(180)"/><rect class="h" x="690.1" y="125.1" width="7.2" height="7.91" transform="translate(1387.5 258) rotate(180)"/><rect class="h" x="680.7" y="125.1" width="7.2" height="7.91" transform="translate(1368.6 258) rotate(180)"/><rect class="l" x="671.2" y="125.1" width="7.2" height="7.91"/><rect class="h" x="661.8" y="125.1" width="7.2" height="7.91" transform="translate(1330.7 258) rotate(180)"/><rect class="l" x="652.3" y="125.1" width="7.2" height="7.91"/><rect class="h" x="642.9" y="125.1" width="7.2" height="7.91" transform="translate(1292.9 258) rotate(180)"/><rect class="h" x="690.1" y="76.8" width="7.2" height="7.91" transform="translate(1387.5 161.5) rotate(180)"/><rect class="l" x="680.7" y="76.8" width="7.2" height="7.91"/><rect class="h" x="671.2" y="76.8" width="7.2" height="7.91" transform="translate(1349.7 161.5) rotate(180)"/><rect class="h" x="661.8" y="76.8" width="7.2" height="7.91" transform="translate(1330.7 161.5) rotate(180)"/><rect class="l" x="652.3" y="76.8" width="7.2" height="7.91"/><rect class="h" x="642.9" y="76.8" width="7.2" height="7.91" transform="translate(1292.9 161.5) rotate(180)"/><rect class="h" x="690.1" y="64.5" width="7.2" height="7.91" transform="translate(1387.5 137) rotate(180)"/><rect class="h" x="680.7" y="64.5" width="7.2" height="7.91" transform="translate(1368.6 137) rotate(180)"/><rect class="h" x="671.2" y="64.5" width="7.2" height="7.91" transform="translate(1349.7 137) rotate(180)"/><rect class="l" x="661.8" y="64.5" width="7.2" height="7.91"/><rect class="h" x="652.3" y="64.5" width="7.2" height="7.91" transform="translate(1311.8 137) rotate(180)"/><rect class="l" x="642.9" y="64.5" width="7.2" height="7.91"/><path class="h" d="M672.1,188.3h0a12.9,12.9,0,0,0-12.9,12.9v14.1H685V201.2A12.9,12.9,0,0,0,672.1,188.3Z"/><path class="h" d="M641.3,46h-2.8V33.5h7.9v1.9h-5.1v3.4H645v1.9h-3.7V46Z"/><path class="h" d="M652.6,33.5a5.4,5.4,0,0,1,3.4.9,2.5,2.5,0,0,1,1,2.1v1.8a2.6,2.6,0,0,1-1.5,2.2l2,5.4h-3l-1.7-4.7h-1.8V46h-2.8V33.5h4.4Zm1.7,3q0-1.1-1.6-1.1h-1.7v4h1.7a1.9,1.9,0,0,0,1.1-.3,0.9,0.9,0,0,0,.5-0.8V36.5Z"/><path class="h" d="M659.9,46V33.5h7.9v1.9h-5.1v3.4h3.7v1.9h-3.7v3.4h5.1V46h-7.9Z"/><path class="h" d="M672.5,46h-2.8V33.5h2.8V46Z"/><path class="h" d="M679.3,46.1a5.4,5.4,0,0,1-3.1-.9,2.5,2.5,0,0,1-1.3-2.1V36.3a2.5,2.5,0,0,1,1.3-2.1,5.4,5.4,0,0,1,3.1-.9,5.3,5.3,0,0,1,3.1.9,2.5,2.5,0,0,1,1.3,2.1v1.4h-2.9V36.3a0.9,0.9,0,0,0-.5-0.8,2,2,0,0,0-1.1-.3,1.9,1.9,0,0,0-1.1.3,0.9,0.9,0,0,0-.5.8v6.8a0.9,0.9,0,0,0,.5.8,1.9,1.9,0,0,0,1.1.3,2,2,0,0,0,1.1-.3,0.9,0.9,0,0,0,.5-0.8V40.7h-1.5V38.8h4.4v4.4a2.5,2.5,0,0,1-1.3,2.1A5.4,5.4,0,0,1,679.3,46.1Z"/><path class="h" d="M688.8,40.7V46H686V33.5h2.8v5.3h3.3V33.5h2.8V46h-2.8V40.7h-3.3Z"/><path class="h" d="M700.1,35.4h-2.9V33.5h8.6v1.9h-2.9V46h-2.8V35.4Z"/><path class="m" d="M497.4,72.8A27.2,27.2,0,0,0,465,46.2a19.8,19.8,0,0,0-36.9-.6,12.2,12.2,0,0,0-17.5,11c0,0.3,0,.6,0,0.9A17.6,17.6,0,0,0,394.6,75H497.3C497.4,74.3,497.4,73.5,497.4,72.8Z"/><path class="m" d="M231.9,79.4a22.2,22.2,0,0,0-26.5-21.7,16.1,16.1,0,0,0-30.1-.5,10,10,0,0,0-14.3,9c0,0.2,0,.5,0,0.7A14.4,14.4,0,0,0,148,81.2h83.8C231.9,80.6,231.9,80,231.9,79.4Z"/><path class="m" d="M795.9,43.7a19.2,19.2,0,0,0-23-18.9,14,14,0,0,0-26.1-.4,8.6,8.6,0,0,0-12.4,7.8c0,0.2,0,.4,0,0.6a12.5,12.5,0,0,0-11.4,12.4h72.8C795.9,44.8,795.9,44.2,795.9,43.7Z"/><path class="m" d="M271,44.4a17.7,17.7,0,0,1,21.1-17.3,12.9,12.9,0,0,1,24-.4,7.9,7.9,0,0,1,11.4,7.2c0,0.2,0,.4,0,0.6a11.4,11.4,0,0,1,10.5,11.4H271C271,45.4,271,44.9,271,44.4Z"/><rect class="e" x="526.2" y="168.1" width="5.7" height="45.14"/><rect class="n" x="526.2" y="168.1" width="2.8" height="45.14"/><path class="o" d="M550.4,132.2a21.3,21.3,0,1,0-41.9,0,20.2,20.2,0,1,0,9.6,39,12.9,12.9,0,0,0,22.8,0A20.2,20.2,0,1,0,550.4,132.2Z"/><path class="p" d="M529.5,107.4h-0.1a21.2,21.2,0,0,0-20.9,24.9,20.2,20.2,0,1,0,9.6,39,12.9,12.9,0,0,0,11.4,6.9h0.1V107.4Z"/><rect class="e" x="40.9" y="169.1" width="8.8" height="47.45"/><rect class="n" x="40.9" y="169.1" width="4.4" height="47.45"/><path class="q" d="M65.4,131.6a22.6,22.6,0,1,0-40.3,0A36.7,36.7,0,1,0,65.4,131.6Z"/><path class="r" d="M45.3,98.7a22.6,22.6,0,0,0-20.1,32.9,36.7,36.7,0,0,0,20.1,67.3V98.7Z"/><rect class="h" x="537.5" y="119.2" width="90.4" height="93.31" transform="translate(1165.4 331.8) rotate(180)"/><polygon class="f" points="548 89.2 617.4 89.2 627.8 119.7 537.6 119.7 548 89.2"/><rect class="j" x="537.6" y="119.7" width="37.3" height="92.84"/><rect class="l" x="610.5" y="127.4" width="8.4" height="14.31" transform="translate(1229.3 269.2) rotate(180)"/><rect class="l" x="597.2" y="127.4" width="8.4" height="14.31" transform="translate(1202.8 269.2) rotate(180)"/><rect class="l" x="584" y="127.4" width="8.4" height="14.31" transform="translate(1176.4 269.2) rotate(180)"/><rect class="l" x="610.5" y="148.4" width="8.4" height="14.31" transform="translate(1229.3 311.1) rotate(180)"/><rect class="l" x="597.2" y="148.4" width="8.4" height="14.31" transform="translate(1202.8 311.1) rotate(180)"/><rect class="l" x="584" y="148.4" width="8.4" height="14.31" transform="translate(1176.4 311.1) rotate(180)"/><rect class="l" x="610.5" y="168.4" width="8.4" height="14.31" transform="translate(1229.3 351.1) rotate(180)"/><rect class="l" x="597.2" y="168.4" width="8.4" height="14.31" transform="translate(1202.8 351.1) rotate(180)"/><rect class="l" x="584" y="168.4" width="8.4" height="14.31" transform="translate(1176.4 351.1) rotate(180)"/><rect class="h" x="558.9" y="128.2" width="9.3" height="7.78" transform="translate(1127.1 264.2) rotate(180)"/><rect class="h" x="544.4" y="128.2" width="9.3" height="7.78" transform="translate(1098 264.2) rotate(180)"/><rect class="f" x="558.9" y="139.3" width="9.3" height="7.78" transform="translate(1127.1 286.3) rotate(180)"/><rect class="h" x="544.4" y="139.3" width="9.3" height="7.78" transform="translate(1098 286.3) rotate(180)"/><rect class="f" x="558.9" y="150.3" width="9.3" height="7.78" transform="translate(1127.1 308.4) rotate(180)"/><rect class="f" x="544.4" y="150.3" width="9.3" height="7.78" transform="translate(1098 308.4) rotate(180)"/><rect class="h" x="558.9" y="161.3" width="9.3" height="7.78" transform="translate(1127.1 330.4) rotate(180)"/><rect class="h" x="544.4" y="161.3" width="9.3" height="7.78" transform="translate(1098 330.4) rotate(180)"/><rect class="h" x="558.9" y="172.4" width="9.3" height="7.78" transform="translate(1127.1 352.5) rotate(180)"/><rect class="h" x="544.4" y="172.4" width="9.3" height="7.78" transform="translate(1098 352.5) rotate(180)"/><rect class="f" x="594" y="191" width="14.6" height="21.56" transform="translate(1202.5 403.5) rotate(180)"/><rect class="f" x="579.8" y="141" width="43.2" height="3.41" transform="translate(1202.9 285.5) rotate(180)"/><rect class="f" x="579.8" y="161.9" width="43.2" height="3.41" transform="translate(1202.9 327.2) rotate(180)"/><polyline class="f" points="579.8 181.8 579.8 185.2 623 185.2 623 181.8"/><rect class="h" x="609.8" y="109" width="7.9" height="6.63"/><rect class="h" x="597.8" y="109" width="7.9" height="6.63"/><rect class="h" x="585.8" y="109" width="7.9" height="6.63"/><rect class="j" x="561.6" y="81.4" width="6.7" height="13.51"/><rect class="j" x="560.2" y="80.7" width="9.4" height="2.63"/><rect class="s" x="730.9" y="65.2" width="49.1" height="34.18"/><polygon class="f" points="730.9 65.2 755.4 52.3 780 65.2 730.9 65.2"/><rect class="f" x="746.8" y="71.9" width="6.6" height="13.11"/><rect class="f" x="757.4" y="71.9" width="6.6" height="13.11"/><rect class="k" x="715.8" y="80.1" width="79.2" height="133.24"/><rect class="s" x="725.9" y="101.9" width="10.4" height="10.37"/><rect class="s" x="742.6" y="101.9" width="10.4" height="10.37"/><rect class="s" x="759.2" y="101.9" width="10.4" height="10.37"/><rect class="s" x="775.9" y="101.9" width="10.4" height="10.37"/><rect class="s" x="725.9" y="119.1" width="10.4" height="10.38"/><rect class="s" x="742.6" y="119.1" width="10.4" height="10.38"/><rect class="s" x="759.2" y="119.1" width="10.4" height="10.38"/><rect class="s" x="775.9" y="119.1" width="10.4" height="10.38"/><rect class="f" x="715.8" y="137.7" width="79.2" height="5.46"/><rect class="s" x="725.9" y="149.4" width="16.7" height="22.39"/><rect class="s" x="749.1" y="149.4" width="16.7" height="22.39"/><rect class="s" x="772.2" y="149.4" width="16.7" height="22.39"/><rect class="t" x="725.9" y="167.7" width="16.7" height="4.1"/><rect class="t" x="749.1" y="167.7" width="16.7" height="4.1"/><rect class="t" x="772.2" y="167.7" width="16.7" height="4.1"/><path class="u" d="M766.3,221.6H740.1V200.2a13.1,13.1,0,0,1,13.1-13.1h0a13.1,13.1,0,0,1,13.1,13.1v21.4Z"/><line class="v" y1="226.9" x2="800" y2="226.9"/><line class="w" y1="226.9" x2="800" y2="226.9"/></g><polygon class="x" points="490 142 352 142 352 181.8 361.3 189 490 189 490 142"/><path class="y" d="M491,212H312.6c-9.2,0-15.8-3.3-15.8-12.5h0c0-9.2,6.5-12.5,15.8-12.5h40.9l6.4,4.5,131.2-.5V212Z"/><path class="x" d="M343.8,132H299.6c-12.1,0-12.6,14.3-12.6,14.3l-8.3,25.1V212H309c0-15,12.2-18,14.4-18H349V137.1A5.1,5.1,0,0,0,343.8,132Z"/><path class="y" d="M340,136v23.5s-4.9,7.3-47.9,12.7c0,0,1.7-26.2,15.8-36.2h32Z"/><circle class="z" cx="329.5" cy="213" r="16.9"/><circle class="h" cx="329.5" cy="213" r="11"/><circle class="aa" cx="329.5" cy="213" r="3.2"/><circle class="z" cx="469" cy="213" r="16.9"/><circle class="h" cx="469" cy="213" r="11"/><circle class="aa" cx="469" cy="213" r="3.2"/><circle class="z" cx="429.3" cy="213" r="16.9"/><circle class="h" cx="429.3" cy="213" r="11"/><circle class="aa" cx="429.3" cy="213" r="3.2"/><path class="ab" d="M299.4,136.7s-13.4,19-12.4,37.9v21.3h19.3s5.1-7.7,17-7.7"/><rect class="y" x="327" y="173" width="12" height="4" rx="1.7" ry="1.7"/><path class="y" d="M278.8,171.8s2.7,0.3,2.9-1c1.7-14.6,9.1-27.7,12.6-34.7h-3.6C286.2,143,278.7,156.8,278.8,171.8Z"/><path class="y" d="M278,201h0.7a5,5,0,0,1,5.3,5.1v0.3a5.3,5.3,0,0,1-5.3,5.5H278V201Z"/><path class="y" d="M281,195a2,2,0,0,1-2,1.9h0a2,2,0,0,1-2-1.9v-3.7a2,2,0,0,1,2-1.9h0a2,2,0,0,1,2,1.9V195Z"/><polygon class="x" points="371.2 157 352 157 352 128 364.3 128 371.2 157"/><rect class="x" x="342" y="124" width="22" height="4"/><rect class="ac" x="367" y="155" width="14" height="35"/><rect class="ac" x="392" y="155" width="13" height="35"/><rect class="ac" x="416" y="155" width="13" height="35"/><rect class="ac" x="440" y="155" width="13" height="35"/><rect class="ac" x="463" y="155" width="14" height="35"/></g></svg>