<svg xmlns="http://www.w3.org/2000/svg" xmlns:xlink="http://www.w3.org/1999/xlink" width="800" height="800" viewBox="0 0 800 800">
  <defs>
    <style>
      .cls-1 {
        fill: #cecece;
        fill-rule: evenodd;
      }
    </style>
    <clipPath id="clip-path">
      <rect x="32.5" width="734" height="800"/>
    </clipPath>
  </defs>
  <g clip-path="url(#clip-path)">
    <path id="no_notification" class="cls-1" d="M735,606.394l-8.6-4.534c-80.942-42.681-94.771-100.078-96.885-121.186L629.948,292.7c-10.812-118.119-96.693-211-208.456-234.191V53.458a53.485,53.485,0,0,0-106.97,0v4.52C193.771,82.329,102.5,189.184,102.5,317.034c0,7.859,1.1,149.8,1.2,162.235C100.664,508.493,84.315,562.453,9.6,601.86L1,606.394V733.905H257.609C271.5,772.067,315.652,800,368,800c52.331,0,96.482-27.9,110.377-66.1H734.987L735,606.394h0Zm-32.275,95.238H33.275V625.678c81.442-46.491,99.307-109.841,102.613-144.149l0.08-1.677S134.773,325.232,134.773,317c0-127.945,104.082-232.01,232.015-232.01,120.738,0,220.041,90.527,230.966,209.065l-0.4,188.053c2.581,27.044,18.186,93.9,105.391,143.535v75.988h-0.016Z" transform="translate(32.5)"/>
  </g>
</svg>
