<?xml version="1.0" encoding="utf-8"?>
<!-- Generator: Adobe Illustrator 19.2.0, SVG Export Plug-In . SVG Version: 6.00 Build 0)  -->
<svg version="1.1" id="Capa_1" xmlns="http://www.w3.org/2000/svg" xmlns:xlink="http://www.w3.org/1999/xlink" x="0px" y="0px"
	 viewBox="0 0 58 58" style="enable-background:new 0 0 58 58;" xml:space="preserve">
<style type="text/css">
	.st0{opacity:0.9;fill:#A5A5A5;}
	.st1{fill:#30B75A;}
	.st2{fill:#DD2C2C;}
	.st3{fill:#FF5718;}
</style>
<ellipse class="st0" cx="29" cy="50" rx="29" ry="8"/>
<path class="st1" d="M41.7,5.3L41.7,5.3c-7.1-7.1-18.6-7.1-25.7,0l0,0C9.6,11.7,8.9,23.8,14.3,31l14.5,21l14.5-21
	C48.8,23.8,48.1,11.7,41.7,5.3z M29,29.3c-6.3,0-11.3-5.1-11.3-11.3S22.7,6.7,29,6.7S40.3,11.7,40.3,18S35.3,29.3,29,29.3z"/>
<ellipse class="st0" cx="107" cy="50" rx="29" ry="8"/>
<path class="st2" d="M119.7,5.3L119.7,5.3c-7.1-7.1-18.6-7.1-25.7,0l0,0c-6.4,6.4-7.1,18.4-1.7,25.7l14.5,21l14.5-21
	C126.8,23.8,126.1,11.7,119.7,5.3z M107,29.3c-6.3,0-11.3-5.1-11.3-11.3S100.7,6.7,107,6.7s11.3,5.1,11.3,11.3S113.3,29.3,107,29.3z
	"/>
<circle class="st0" cx="185" cy="29" r="19.8"/>
<circle class="st3" cx="185" cy="29" r="13.8"/>
</svg>
